<svg id="elements" xmlns="http://www.w3.org/2000/svg" xmlns:xlink="http://www.w3.org/1999/xlink" viewBox="0 0 618.4 380.13">
  <defs>
    <style>
      .cls-1-winner {
        fill: #b32b29;
      }

      .cls-2-winner {
        fill: #fff;
      }

      .cls-3-winner {
        fill: url(#Unbenannter_Verlauf_43);
      }

      .cls-4 {
        fill: url(#Unbenannter_Verlauf_43-2);
      }

      .cls-5 {
        fill: #fff482;
      }

      .cls-10, .cls-5, .cls-7 {
        stroke: #fff482;
      }

      .cls-10, .cls-11, .cls-5, .cls-7, .cls-8, .cls-9 {
        stroke-miterlimit: 10;
      }

      .cls-6 {
        fill: url(#Unbenannter_Verlauf_15);
      }

      .cls-10, .cls-11, .cls-7, .cls-8, .cls-9 {
        fill: none;
      }

      .cls-11, .cls-7, .cls-9 {
        stroke-width: 2px;
      }

      .cls-8 {
        stroke-width: 7px;
        opacity: 0.53;
        stroke: url(#Unbenannter_Verlauf_17);
      }

      .cls-9 {
        stroke: #e73c22;
      }

      .cls-11 {
        stroke: #009640;
      }

      .cls-12 {
        fill: #5ac2d9;
      }

      .cls-13 {
        fill: #00FF00;
      }

      .cls-14 {
        fill: #a481b9;
      }

      .cls-15 {
        fill: #fab60f;
      }

      .cls-16 {
        fill: #e73c22;
      }

      .cls-17 {
        fill: #535ca6;
      }
    </style>
    <linearGradient id="Unbenannter_Verlauf_43" data-name="Unbenannter Verlauf 43" x1="291.55" y1="204.21" x2="387.12" y2="367.85" gradientUnits="userSpaceOnUse">
      <stop offset="0" stop-color="#e8b003"/>
      <stop offset="0.03" stop-color="#ebb107" stop-opacity="0.85"/>
      <stop offset="0.07" stop-color="#eeb20b" stop-opacity="0.68"/>
      <stop offset="0.11" stop-color="#f1b310" stop-opacity="0.51"/>
      <stop offset="0.16" stop-color="#f3b413" stop-opacity="0.37"/>
      <stop offset="0.21" stop-color="#f5b516" stop-opacity="0.26"/>
      <stop offset="0.27" stop-color="#f7b619" stop-opacity="0.16"/>
      <stop offset="0.34" stop-color="#f8b61b" stop-opacity="0.09"/>
      <stop offset="0.42" stop-color="#f9b71c" stop-opacity="0.04"/>
      <stop offset="0.54" stop-color="#fab71d" stop-opacity="0.01"/>
      <stop offset="0.88" stop-color="#fab71d" stop-opacity="0"/>
    </linearGradient>
    <linearGradient id="Unbenannter_Verlauf_43-2" x1="293.89" y1="202.84" x2="389.46" y2="366.48" xlink:href="#Unbenannter_Verlauf_43"/>
    <linearGradient id="Unbenannter_Verlauf_15" data-name="Unbenannter Verlauf 15" x1="461.94" y1="289.61" x2="549.03" y2="550.88" gradientUnits="userSpaceOnUse">
      <stop offset="0" stop-color="#ffef26"/>
      <stop offset="0.02" stop-color="#ffea21"/>
      <stop offset="0.1" stop-color="#fed70f"/>
      <stop offset="0.19" stop-color="#fdcc04"/>
      <stop offset="0.28" stop-color="#fdc800"/>
      <stop offset="1" stop-color="#f18f34"/>
    </linearGradient>
    <linearGradient id="Unbenannter_Verlauf_17" data-name="Unbenannter Verlauf 17" x1="555.97" y1="528.63" x2="691.54" y2="528.63" gradientTransform="translate(436.97 -647.32) rotate(60)" gradientUnits="userSpaceOnUse">
      <stop offset="0" stop-color="#ffef26"/>
      <stop offset="0" stop-color="#ffea21"/>
      <stop offset="0" stop-color="#fed70f"/>
      <stop offset="0" stop-color="#fdcc04"/>
      <stop offset="0" stop-color="#fdc800"/>
      <stop offset="0.68" stop-color="#f18f34"/>
    </linearGradient>
  </defs>
  <title>Winner-icon</title>
  <g id="band">
    <g>
      <polygon class="cls-1-winner" points="277.06 219.62 301.21 325.97 339.53 278.07 396.14 278.07 333.44 193.6 277.06 219.62"/>
      <polygon class="cls-2-winner" points="322.96 298.78 295.83 210.96 316.81 201.27 364.79 278.07 339.53 278.07 322.96 298.78"/>
    </g>
    <g>
      <polygon class="cls-3-winner" points="277.06 219.62 301.21 325.97 339.53 278.07 396.14 278.07 333.44 193.6 277.06 219.62"/>
      <polygon class="cls-4" points="322.96 298.78 295.83 210.96 316.81 201.27 364.79 278.07 339.53 278.07 322.96 298.78"/>
    </g>
  </g>
  <g id="medal">
    <circle class="cls-5" cx="270.37" cy="117.48" r="1.8"/>
    <circle class="cls-5" cx="292.26" cy="115.16" r="1.8"/>
    <circle class="cls-5" cx="310.77" cy="118.2" r="1.8"/>
    <path class="cls-6" d="M486.73,258.82l18.6,18a5.31,5.31,0,0,0,4.43,1.43l25.62-3.62a5.3,5.3,0,0,1,6,4.33l4.47,25.49a5.3,5.3,0,0,0,2.74,3.77l22.86,12.12a5.31,5.31,0,0,1,2.27,7l-11.36,23.24a5.3,5.3,0,0,0,0,4.66l11.36,23.24a5.31,5.31,0,0,1-2.27,7l-22.86,12.12a5.3,5.3,0,0,0-2.74,3.77l-4.47,25.49a5.3,5.3,0,0,1-6,4.33l-25.62-3.62a5.31,5.31,0,0,0-4.43,1.43l-18.6,18a5.3,5.3,0,0,1-7.37,0l-18.6-18a5.31,5.31,0,0,0-4.43-1.43l-25.62,3.62a5.3,5.3,0,0,1-6-4.33l-4.47-25.49a5.3,5.3,0,0,0-2.74-3.77l-22.85-12.12a5.3,5.3,0,0,1-2.28-7l11.36-23.24a5.3,5.3,0,0,0,0-4.66l-11.36-23.24a5.3,5.3,0,0,1,2.28-7l22.85-12.12a5.3,5.3,0,0,0,2.74-3.77L424.75,279a5.3,5.3,0,0,1,6-4.33l25.62,3.62a5.31,5.31,0,0,0,4.43-1.43l18.6-18A5.3,5.3,0,0,1,486.73,258.82Z" transform="translate(-192.01 -195.74)"/>
    <path class="cls-5" d="M503.26,348.31a300,300,0,0,0-39.68.09l.93-1.86c-1.12-1.85.92-1.86.92-1.86l1.88-.13.33-3.95a1.1,1.1,0,0,1,1.11-1.12c1.12,0,11.13-.76,28.55-.06,0,0,1.86,0,1.86,1.67a24,24,0,0,0,.32,3.33c1.26.1,1.91.18,1.91.18a1.37,1.37,0,0,1,1.31,1.86Z" transform="translate(-192.01 -195.74)"/>
    <path class="cls-7" d="M465.34,348.11l5.3,48.38a105.55,105.55,0,0,0,26.14-.06l4.9-48.4S478.32,346.79,465.34,348.11Z" transform="translate(-192.01 -195.74)"/>
    <ellipse class="cls-5" cx="484.39" cy="369.76" rx="11.12" ry="11.96" transform="translate(-192.8 -194.7) rotate(-0.12)"/>
    <path class="cls-5" d="M467.28,337.38h30.79s-.85-15.48,3.61-20.69l-10.58,7.15-7.19-9.9L476,323.58l-11.82-7.48S471.91,329.83,467.28,337.38Z" transform="translate(-192.01 -195.74)"/>
    <circle class="cls-8" cx="291.04" cy="157.18" r="64.28"/>
  </g>
  <g id="blink4">
    <line class="cls-9" x1="130.12" y1="269.33" x2="130.12" y2="260.18"/>
    <line class="cls-9" x1="140.96" y1="280.16" x2="150.1" y2="280.16"/>
    <line class="cls-9" x1="130.12" y1="291" x2="130.12" y2="300.15"/>
    <line class="cls-9" x1="119.28" y1="280.16" x2="110.14" y2="280.16"/>
    <line class="cls-9" x1="122.08" y1="272.9" x2="115.63" y2="266.45"/>
    <line class="cls-9" x1="137.43" y1="272.17" x2="143.9" y2="265.7"/>
    <line class="cls-9" x1="137.75" y1="287.86" x2="144.21" y2="294.32"/>
    <line class="cls-9" x1="122.72" y1="288.08" x2="116.25" y2="294.55"/>
  </g>
  <g id="blink3">
    <line class="cls-10" x1="491.75" y1="50.75" x2="491.75" y2="41.6"/>
    <line class="cls-10" x1="502.58" y1="61.58" x2="511.73" y2="61.58"/>
    <line class="cls-10" x1="491.75" y1="72.42" x2="491.75" y2="81.57"/>
    <line class="cls-10" x1="480.91" y1="61.58" x2="471.76" y2="61.58"/>
    <line class="cls-10" x1="483.71" y1="54.32" x2="477.26" y2="47.87"/>
    <line class="cls-10" x1="499.06" y1="53.59" x2="505.53" y2="47.12"/>
    <line class="cls-10" x1="499.38" y1="69.28" x2="505.84" y2="75.74"/>
    <line class="cls-10" x1="484.35" y1="69.5" x2="477.88" y2="75.97"/>
  </g>
  <g id="blink2">
    <line class="cls-10" x1="199.86" y1="9.15" x2="199.86"/>
    <line class="cls-10" x1="210.7" y1="19.98" x2="219.85" y2="19.98"/>
    <line class="cls-10" x1="199.86" y1="30.82" x2="199.86" y2="39.97"/>
    <line class="cls-10" x1="189.02" y1="19.98" x2="179.88" y2="19.98"/>
    <line class="cls-10" x1="191.82" y1="12.71" x2="185.38" y2="6.27"/>
    <line class="cls-10" x1="207.18" y1="11.99" x2="213.64" y2="5.52"/>
    <line class="cls-10" x1="207.5" y1="27.68" x2="213.96" y2="34.14"/>
    <line class="cls-10" x1="192.46" y1="27.9" x2="185.99" y2="34.37"/>
  </g>
  <g id="blink1">
    <line class="cls-11" x1="473.1" y1="307.56" x2="473.1" y2="295.58"/>
    <line class="cls-11" x1="487.3" y1="321.75" x2="499.28" y2="321.75"/>
    <line class="cls-11" x1="473.1" y1="335.95" x2="473.1" y2="347.93"/>
    <line class="cls-11" x1="458.91" y1="321.75" x2="446.93" y2="321.75"/>
    <line class="cls-11" x1="462.57" y1="312.23" x2="454.13" y2="303.79"/>
    <line class="cls-11" x1="482.69" y1="311.28" x2="491.16" y2="302.81"/>
    <line class="cls-11" x1="483.11" y1="331.83" x2="491.57" y2="340.29"/>
    <line class="cls-11" x1="463.41" y1="332.12" x2="454.93" y2="340.6"/>
  </g>
  <path id="rectangle4" class="cls-12" d="M725.61,479s19.23-25.79,19.59-41.31L765.86,454s-8.46,31-20.66,39.1Z" transform="translate(-192.01 -195.74)"/>
  <path id="rectangle3" class="cls-13" d="M387.54,504.21s22.42,4.56,32.52.1l-4.26,18.24s-22.49,3.94-31.42-1.45Z" transform="translate(-192.01 -195.74)"/>
  <path id="rectangle2" class="cls-14" d="M202.39,462s-2.92-22.58-10.38-30.65l18.54-1.87s11,19.91,8.76,30.05Z" transform="translate(-192.01 -195.74)"/>
  <path id="rectangle1" class="cls-13" d="M621.71,360s7.81-13.64,7.07-21.2l11,6.71s-2.28,15.53-7.72,20.2Z" transform="translate(-192.01 -195.74)"/>
  <polygon class="cls-15" points="59.4 121.36 29.46 100.75 26.58 136.99 59.4 121.36"/>
  <polygon class="cls-16" points="417.94 222.45 406.19 242.81 429.7 242.81 417.94 222.45"/>
  <polygon class="cls-15" points="584.63 159.52 593.68 193.29 618.4 168.57 584.63 159.52"/>
  <polygon class="cls-16" points="347.03 25.37 355.27 45.18 368.31 28.13 347.03 25.37"/>
  <polygon class="cls-16" points="260.94 360.31 269.19 380.13 282.22 363.08 260.94 360.31"/>
  <polygon class="cls-17" points="111.32 339.99 115.64 350.36 122.46 341.44 111.32 339.99"/>
  <polygon class="cls-17" points="400.62 313.15 404.94 323.52 411.76 314.59 400.62 313.15"/>
  <polygon class="cls-16" points="155.57 80.51 160.42 92.15 168.07 82.14 155.57 80.51"/>
</svg>
